<?xml version="1.0" encoding="utf-8"?>
<!-- Generator: Adobe Illustrator 27.5.0, SVG Export Plug-In . SVG Version: 6.00 Build 0)  -->
<svg version="1.1" id="Capa_1" xmlns="http://www.w3.org/2000/svg" xmlns:xlink="http://www.w3.org/1999/xlink" width="20" height="31.063" x="0px" y="0px"
	 viewBox="0 0 20 31.063" style="enable-background:new 0 0 20 31.063;" xml:space="preserve">
<style type="text/css">
	.st0{fill:rgb(0,150,178,1);}
</style>
<path class="st0" d="M7.3333,19.9995l-0.2083-4l-2.318,2l1.8597,2H7.3333z M10,31.0635l4.4052-7.63H5.5948L10,31.0635z M16,0.6661
	h-4l-1.3333,1.3333H7.3333l0.6667,2l4,2l5.3333-2.6666l1.3334-3.3333L16,0.6661z M12.6667,2.6661
	C12.2985,2.6661,12,2.3677,12,1.9995c0-0.3682,0.2985-0.6666,0.6667-0.6666c0.3682,0,0.6666,0.2985,0.6666,0.6666
	C13.3333,2.3677,13.0349,2.6661,12.6667,2.6661z M19.4733,13.6724L18,17.9995l1.3333,2H20L19.4733,13.6724z M17.3333,3.3328
	L12,7.9995l-7.3333,2L1.9852,8.6486l0.6815,2.6843L0,19.9995h0.6667l6.6666-5.3333h6l2,5.3333H16l3.3333-8.6666L17.3333,3.3328z"/>
</svg>
