<?xml version="1.0" encoding="utf-8"?>
<!-- Generator: Adobe Illustrator 27.6.1, SVG Export Plug-In . SVG Version: 6.00 Build 0)  -->
<svg version="1.1" id="Capa_1" xmlns="http://www.w3.org/2000/svg" xmlns:xlink="http://www.w3.org/1999/xlink" width="20" height="31.063" x="0px" y="0px"
	 viewBox="0 0 20 20" style="enable-background:new 0 0 20 20;" xml:space="preserve">
	 <style type="text/css">
	.st0{fill:#6aa84f;}
</style>
<path class="st0" d="M17.3333,3.3333L12,8l-7.3333,2L1.9852,8.649l0.6815,2.6843L0,20h0.6667l6.6666-5.3333h6l2,5.3333H16l3.3333-8.6666
	L17.3333,3.3333z M19.4733,13.6729L18,18l1.3333,2H20L19.4733,13.6729z M7.3333,20L7.125,16l-2.318,2l1.8597,2H7.3333z M16,0.6667
	h-4L10.6667,2H7.3333L8,4l4,2l5.3333-2.6666L18.6667,0L16,0.6667z M12.6667,2.6667C12.2985,2.6667,12,2.3682,12,2
	s0.2985-0.6666,0.6667-0.6666S13.3333,1.6319,13.3333,2C13.3333,2.3682,13.0349,2.6667,12.6667,2.6667z"/>
</svg>
