<?xml version="1.0" encoding="utf-8"?>
<!-- Generator: Adobe Illustrator 27.6.1, SVG Export Plug-In . SVG Version: 6.00 Build 0)  -->
<svg version="1.1" id="Capa_1" xmlns="http://www.w3.org/2000/svg" xmlns:xlink="http://www.w3.org/1999/xlink" width="55.066" height="47.691" x="0px" y="0px"
	 viewBox="0 0 31.5834 31.5834" style="enable-background:new 0 0 31.5834 31.5834;" xml:space="preserve">
<style type="text/css">
	.st0{fill:#0096B2;}
	.st1{fill:#FB923C;}
</style>
<g>
	<path class="st0" d="M15.7917,4.828L15.7917,4.828C9.7366,4.828,4.828,9.7366,4.828,15.7917s4.9086,10.9637,10.9636,10.9637h0.0001
		c6.0551,0,10.9636-4.9086,10.9636-10.9637S21.8468,4.828,15.7917,4.828z"/>
</g>
<g>
	<g>
		<path class="st1" d="M8.5641,25.7396l-2.0453,2.8151c1.326,0.9651,2.8011,1.7346,4.3942,2.2519l1.076-3.3118
			C10.7474,27.0916,9.5976,26.4919,8.5641,25.7396z"/>
	</g>
	<g>
		<path class="st1" d="M5.8438,23.0193l-2.8151,2.0453c0.9744,1.3388,2.1514,2.5156,3.4902,3.4901l2.0453-2.8151
			C7.5206,24.9801,6.6033,24.0628,5.8438,23.0193z"/>
	</g>
	<g>
		<path class="st1" d="M15.7917,28.1003c-1.3281,0-2.6042-0.2162-3.8026-0.6054l-1.076,3.3118
			c1.5374,0.4993,3.1747,0.7768,4.8786,0.7768h0.0001L15.7917,28.1003L15.7917,28.1003z"/>
	</g>
	<g>
		<path class="st1" d="M27.4948,19.5942l3.3118,1.0761c0.4993-1.5374,0.7768-3.1747,0.7768-4.8786h-3.4832
			C28.1003,17.1198,27.884,18.3959,27.4948,19.5942z"/>
	</g>
	<g>
		<path class="st1" d="M19.5943,27.4948l1.0761,3.3118c1.593-0.5174,3.0682-1.2867,4.3942-2.2518l-2.0453-2.8151
			C21.9858,26.4919,20.8359,27.0915,19.5943,27.4948z"/>
	</g>
	<g>
		<path class="st1" d="M15.7917,28.1003v3.4832c1.7039,0,3.3412-0.2775,4.8787-0.7769l-1.0761-3.3118
			C18.3959,27.884,17.1198,28.1003,15.7917,28.1003z"/>
	</g>
	<g>
		<path class="st1" d="M27.4948,19.5942c-0.4033,1.2417-1.003,2.3915-1.7552,3.425l2.8151,2.0453
			c0.9651-1.326,1.7345-2.8011,2.2519-4.3942L27.4948,19.5942z"/>
	</g>
	<g>
		<path class="st1" d="M23.0193,25.7396l2.0453,2.8151c1.3388-0.9744,2.5156-2.1514,3.4901-3.4902l-2.8151-2.0453
			C24.9801,24.0628,24.0628,24.9801,23.0193,25.7396z"/>
	</g>
	<g>
		<path class="st0" d="M3.4832,15.7917H0c0,1.7039,0.2775,3.3412,0.7768,4.8786l3.3119-1.076
			C3.6995,18.396,3.4832,17.1198,3.4832,15.7917z"/>
	</g>
	<g>
		<path class="st1" d="M4.0887,19.5943l-3.3119,1.076c0.5174,1.5931,1.2867,3.0682,2.2519,4.3943l2.8151-2.0453
			C5.0915,21.9858,4.4919,20.836,4.0887,19.5943z"/>
	</g>
	<g>
		<path class="st1" d="M23.0193,5.8439l2.0453-2.8152c-1.326-0.9651-2.8012-1.7344-4.3942-2.2518l-1.0761,3.3118
			C20.8359,4.4919,21.9858,5.0917,23.0193,5.8439z"/>
	</g>
	<g>
		<path class="st1" d="M25.7396,8.5641l2.8151-2.0453c-0.9745-1.3388-2.1513-2.5157-3.4901-3.4902l-2.0453,2.8152
			C24.0628,6.6034,24.9801,7.5206,25.7396,8.5641z"/>
	</g>
	<g>
		<path class="st1" d="M19.5943,4.0887l1.0761-3.3118C19.1329,0.2775,17.4956,0,15.7917,0v3.4832
			C17.1198,3.4832,18.3959,3.6995,19.5943,4.0887z"/>
	</g>
	<g>
		<path class="st1" d="M27.4948,11.9892l3.3118-1.0761c-0.5174-1.593-1.2868-3.0682-2.2519-4.3942l-2.8151,2.0453
			C26.4919,9.5976,27.0915,10.7475,27.4948,11.9892z"/>
	</g>
	<g>
		<path class="st0" d="M4.0887,11.9891l-3.3119-1.076C0.2774,12.4505,0,14.0878,0,15.7917h3.4832
			C3.4832,14.4637,3.6995,13.1875,4.0887,11.9891z"/>
	</g>
	<g>
		<path class="st1" d="M28.1003,15.7917h3.4832c0-1.7039-0.2775-3.3412-0.7768-4.8787l-3.3118,1.0761
			C27.884,13.1875,28.1003,14.4637,28.1003,15.7917z"/>
	</g>
	<g>
		<path class="st0" d="M15.7917,3.4832L15.7917,3.4832L15.7917,0h-0.0001c-1.7039,0-3.3412,0.2775-4.8786,0.7768l1.0761,3.3118
			C13.1875,3.6994,14.4636,3.4832,15.7917,3.4832z"/>
	</g>
	<g>
		<path class="st0" d="M8.5642,5.8438L6.5188,3.0287C5.18,4.0032,4.0031,5.18,3.0287,6.5188l2.8151,2.0453
			C6.6033,7.5206,7.5207,6.6033,8.5642,5.8438z"/>
	</g>
	<g>
		<path class="st0" d="M5.8438,8.5641L3.0287,6.5188C2.0635,7.8448,1.2942,9.32,0.7768,10.9131l3.3119,1.076
			C4.4919,10.7474,5.0915,9.5976,5.8438,8.5641z"/>
	</g>
	<g>
		<path class="st0" d="M11.9892,4.0886l-1.0761-3.3118C9.32,1.2942,7.8448,2.0635,6.5188,3.0287l2.0453,2.8151
			C9.5977,5.0915,10.7475,4.4919,11.9892,4.0886z"/>
	</g>
</g>
</svg>
