<?xml version="1.0" encoding="utf-8"?>
<!-- Generator: Adobe Illustrator 27.6.1, SVG Export Plug-In . SVG Version: 6.00 Build 0)  -->
<svg version="1.1" id="Capa_1" xmlns="http://www.w3.org/2000/svg" xmlns:xlink="http://www.w3.org/1999/xlink" x="0px" y="0px"
	 viewBox="0 0 31.5834 31.5834" style="enable-background:new 0 0 31.5834 31.5834;" xml:space="preserve">
<style type="text/css">
	.st0{fill:#0096B2;}
</style>
<g>
	<g>
		<path class="st0" d="M3.4832,15.7917H0c0,8.7215,7.0702,15.7917,15.7917,15.7917v-3.4832
			C8.9938,28.1003,3.4832,22.5895,3.4832,15.7917z"/>
	</g>
	<g>
		<path class="st0" d="M15.7917,3.4832V0C7.0702,0,0,7.0702,0,15.7917h3.4832C3.4832,8.9939,8.9938,3.4832,15.7917,3.4832z"/>
	</g>
	<g>
		<path class="st0" d="M28.1003,15.7917c0,6.7978-5.5107,12.3085-12.3085,12.3085h-0.0001v3.4832
			c8.7216,0,15.7917-7.0702,15.7917-15.7917H28.1003z"/>
	</g>
	<g>
		<path class="st0" d="M15.7917,3.4832c6.7978,0,12.3085,5.5107,12.3085,12.3085h3.4832C31.5834,7.0702,24.5132,0,15.7917,0
			L15.7917,3.4832L15.7917,3.4832z"/>
	</g>
	<g>
		<path class="st0" d="M15.7917,4.8281L15.7917,4.8281c-6.0551,0-10.9637,4.9086-10.9637,10.9637s4.9086,10.9637,10.9636,10.9637
			h0.0001c6.0551,0,10.9636-4.9086,10.9636-10.9637S21.8468,4.8281,15.7917,4.8281z"/>
	</g>
</g>
</svg>
